<?xml version="1.0" standalone="no"?>
<!DOCTYPE svg PUBLIC "-//W3C//DTD SVG 20010904//EN"
 "http://www.w3.org/TR/2001/REC-SVG-20010904/DTD/svg10.dtd">
<svg version="1.0" xmlns="http://www.w3.org/2000/svg"
 width="256.000000pt" height="256.000000pt" viewBox="0 0 256.000000 256.000000"
 preserveAspectRatio="xMidYMid meet">

<g transform="translate(0.000000,256.000000) scale(0.100000,-0.100000)"
fill="#000000" stroke="none">
<path d="M0 1280 l0 -1280 1280 0 1280 0 0 1280 0 1280 -1280 0 -1280 0 0
-1280z m1810 861 c0 -13 168 -219 188 -230 38 -21 -2 -23 -70 -3 -107 31 -150
36 -209 22 -29 -7 -80 -13 -113 -13 l-61 0 63 -14 62 -15 0 -44 c0 -31 -6 -50
-21 -65 l-20 -20 48 -56 c71 -81 92 -113 99 -150 14 -76 -16 -104 -125 -118
-30 -4 -65 -11 -79 -16 -36 -14 -39 -4 -5 17 15 9 46 29 68 43 l40 26 -70 3
c-38 2 -89 -2 -112 -7 -23 -6 -55 -11 -71 -11 l-29 0 -7 -108 c-3 -59 -15
-139 -26 -177 -28 -100 -29 -99 36 -111 65 -12 69 -7 61 59 l-5 42 25 -50 c14
-27 22 -39 18 -25 -18 74 -22 132 -8 146 8 8 18 14 22 14 5 0 21 12 37 28 28
26 194 125 200 119 2 -1 -10 -54 -27 -117 -30 -118 -62 -191 -108 -246 -46
-54 -71 -87 -134 -176 -34 -49 -68 -88 -75 -88 -17 0 -72 28 -94 48 -10 8 -18
29 -18 48 0 36 46 84 104 108 37 15 55 51 37 69 -15 15 -289 13 -303 -1 -20
-20 4 -52 67 -92 49 -30 65 -46 65 -63 0 -49 -13 -67 -66 -96 l-54 -29 -25 31
c-62 79 -120 160 -181 252 -54 81 -75 125 -111 233 -25 73 -51 138 -58 145
-20 21 -9 85 22 125 15 21 46 55 68 77 82 81 79 75 46 139 -17 31 -33 72 -36
90 -7 33 -7 34 -73 40 -44 4 -91 1 -137 -9 -112 -24 -114 -22 -55 42 28 31 69
82 91 114 21 32 43 60 48 63 5 3 20 -3 34 -14 14 -11 38 -21 54 -21 23 -1 24
-2 6 -6 -13 -2 -23 -8 -23 -13 0 -16 32 -40 43 -33 24 15 83 0 167 -42 l87
-44 92 30 c63 20 97 26 109 20 9 -5 39 -16 65 -25 l48 -16 102 40 c56 22 140
62 187 90 88 51 100 56 100 41z m-1170 -468 c0 -6 5 -13 11 -15 6 -2 13 -25
16 -50 l5 -46 90 70 c49 38 92 67 95 64 3 -3 -21 -33 -54 -68 -33 -35 -66 -74
-74 -88 -9 -17 -13 -74 -14 -185 -1 -88 -5 -190 -9 -226 l-8 -66 57 -33 c31
-18 84 -47 118 -65 34 -18 63 -38 65 -45 5 -14 -70 -250 -79 -250 -13 0 -231
227 -262 273 -18 26 -40 47 -49 47 -15 0 -18 10 -18 63 0 34 7 91 15 126 12
49 13 67 4 75 -9 8 -10 8 -5 -1 5 -9 2 -11 -8 -7 -15 6 -20 17 -17 40 1 6 -10
19 -24 28 -24 16 -26 44 -3 30 7 -5 9 -1 5 8 -5 15 -1 18 56 33 4 2 18 3 32 4
38 2 30 21 -9 21 -19 0 -63 9 -98 20 -35 11 -74 21 -86 23 -33 5 -35 11 -13
48 10 19 47 97 82 174 95 212 85 204 136 99 23 -49 43 -94 43 -101z m1466 -12
l99 -198 -85 -12 c-47 -6 -101 -16 -121 -22 l-36 -11 32 -49 c18 -27 47 -79
65 -115 31 -59 33 -69 23 -102 -17 -59 -64 -166 -76 -177 -7 -5 -19 -23 -27
-40 -8 -16 -73 -88 -145 -160 l-130 -129 -6 40 c-4 22 -26 83 -48 136 -23 52
-41 101 -41 108 0 23 71 129 131 196 81 89 90 111 91 249 1 106 -1 119 -25
166 l-27 51 40 -32 c22 -18 45 -41 51 -51 15 -29 29 -23 29 14 0 18 20 95 45
170 25 76 45 144 45 152 0 39 26 -1 116 -184z m-571 -1027 c9 3 19 -4 26 -16
10 -19 9 -20 -12 -15 -23 6 -23 5 -5 -8 20 -15 20 -15 0 -31 -17 -14 -17 -15
-1 -10 11 3 16 2 12 -4 -9 -14 19 -12 33 2 6 6 13 10 16 7 2 -2 -21 -27 -50
-54 l-54 -51 0 66 c0 36 3 97 8 135 7 67 7 68 10 22 2 -37 7 -47 17 -43z
m-136 30 c2 -2 -8 -70 -22 -152 -23 -138 -48 -222 -67 -222 -13 0 -40 48 -49
87 -5 21 -9 29 -10 18 0 -11 4 -38 9 -60 l9 -40 -43 47 c-33 36 -52 72 -86
165 -23 65 -46 130 -50 144 l-8 26 157 -5 c86 -2 158 -6 160 -8z"/>
<path d="M1835 2045 c8 -37 32 -75 47 -75 6 0 4 7 -5 18 -9 10 -23 33 -32 52
-15 34 -16 34 -10 5z"/>
<path d="M1598 1671 c-1 -4 -41 -35 -89 -69 -114 -81 -130 -100 -59 -72 29 11
62 26 72 31 38 21 98 82 98 100 0 19 -15 26 -22 10z"/>
<path d="M895 1501 c11 -5 17 -10 13 -10 -18 -2 39 -47 76 -61 22 -8 41 -21
44 -28 3 -10 -4 -10 -28 3 -26 13 -168 38 -178 30 -1 -1 28 -21 64 -44 59 -38
72 -42 115 -39 34 2 48 -1 45 -9 -3 -6 4 -19 15 -29 11 -10 18 -26 16 -36 -3
-10 0 -16 7 -15 7 1 11 -24 11 -81 l0 -84 34 6 c19 3 38 9 41 13 4 4 0 89 -9
188 l-16 179 -35 8 c-57 12 -238 20 -215 9z"/>
<path d="M1980 1575 c0 -8 9 -15 20 -15 13 0 18 5 14 15 -4 8 -12 15 -20 15
-8 0 -14 -7 -14 -15z"/>
<path d="M1982 1490 c-20 -33 -14 -38 31 -23 54 18 69 33 35 33 -15 0 -32 2
-40 5 -7 3 -19 -4 -26 -15z"/>
<path d="M1930 1470 c0 -5 5 -10 11 -10 5 0 7 5 4 10 -3 6 -8 10 -11 10 -2 0
-4 -4 -4 -10z"/>
<path d="M1526 532 c-3 -4 4 -9 15 -9 23 -2 25 3 4 10 -8 4 -16 3 -19 -1z"/>
</g>
</svg>
